<?xml version="1.0" encoding="utf-8"?>
<!-- Generator: Adobe Illustrator 19.1.0, SVG Export Plug-In . SVG Version: 6.00 Build 0)  -->
<svg version="1.2" baseProfile="tiny" id="Layer_1" xmlns="http://www.w3.org/2000/svg" xmlns:xlink="http://www.w3.org/1999/xlink"
	 x="0px" y="0px" width="275.2px" height="74px" viewBox="0 0 275.2 74" xml:space="preserve">
<g>
	<path fill-rule="evenodd" fill="#FFFFFF" d="M81.5,52.2l1.9-0.6V19.3c0-7.8,0-8.2,2.5-8.4l2.3-0.2V9.3H72.6v1.4l2.3,0.2
		c2.5,0.3,2.5,0.6,2.5,8.4v26.1c-1,1.2-4.9,5.1-11.6,5.1c-10,0-11.5-6.1-11.5-15.3V19.3c0-7.8,0-8.2,2.5-8.4l2.3-0.2V9.3H43.5v1.4
		l2.3,0.2c2.5,0.3,2.5,0.6,2.5,8.4v17c0,8.7,1.1,16.4,14.4,16.4c8.5,0,13.9-4,14.8-4c1,0,1.5,0.9,2.4,1.8L81.5,52.2z"/>
	<path fill-rule="evenodd" fill="#FFFFFF" d="M98.7,51.7h17.8v-1.4l-2.3-0.2c-3.6-0.3-3.6-0.6-3.6-8.4V11.1h3.3
		c9.1,0,9.2,1,10.6,8.4h1.5c0-0.3-0.3-8.8-0.6-10.2H89.7c-0.3,1.4-0.6,10-0.6,10.2h1.5c1.4-7.5,1.5-8.4,10.6-8.4h3.3v30.6
		c0,7.8,0,8.2-3.5,8.4l-2.4,0.2V51.7z"/>
	<path fill-rule="evenodd" fill="#FFFFFF" d="M165.6,43.2c0-6.3,0-6.6,1.2-6.8l2.3-0.2v-1.4h-16.3v1.4l2.3,0.2
		c4.5,0.3,4.5,0.6,4.5,8.4v4.8c-2.2,0.6-5.2,0.8-7.5,0.8c-12.6,0-18.2-10.2-18.2-21.1c0-12,6.6-18.9,17.1-18.9
		c11,0,11.8,7.8,12.5,10.4l1.7-0.4c-0.3-3.2-0.6-6.8-1-9.5c-1.7-1-6.5-2.6-13.1-2.6c-10.1,0-24,5.1-24,22.3c0,16.4,11.6,22,24.5,22
		c6.9,0,11.8-1.8,14.1-2.6C165.7,50.1,165.6,45.1,165.6,43.2"/>
	<path fill-rule="evenodd" fill="#FFFFFF" d="M173.1,51.7h29.4c0.8-3.5,1.6-6.7,2.1-10.7l-1.6-0.3c-1.3,5.3-1.9,9.1-12.2,9.1
		c-2.3,0-4.7-0.4-7-0.8V30.5h5.7c5,0,6.2,0.1,6.5,2.7l0.3,2.2h1.7V23.9h-1.7l-0.3,2.2c-0.4,2.6-1.5,2.7-6.5,2.7h-5.7V11.1h5.3
		c9.1,0,9.2,1,10.6,7.8l1.5-0.3c0-0.6-0.3-8-0.6-9.4h-27.7v1.4l2.3,0.2c2.5,0.3,2.5,0.6,2.5,8.4v22.4c0,7.9,0,8.2-2.5,8.4l-2.3,0.2
		V51.7z"/>
	<path fill-rule="evenodd" fill="#FFFFFF" d="M209.6,51.7h15.5v-1.4l-2.3-0.2c-2.4-0.3-2.4-0.6-2.4-8.4v-8.5h2.4c1.3,0,3,0,4,0.8
		c0.8,0.7,2.3,3.2,4,6.3l2.6,5c1.9,3.5,4.9,6.4,9.1,6.4h4.9v-1.4c-1.4,0-2.6-0.3-3.2-0.6c-1.6-0.9-4.4-4.7-7.1-9.5
		c-1.7-3.1-3.9-7.2-4.8-9c3.5-1.7,8.9-5.2,8.9-11.2c0-9.8-8.6-10.6-14.7-10.6h-16.8v1.4l2.3,0.2c2.5,0.3,2.5,0.6,2.5,8.4v22.4
		c0,7.8,0,8.2-2.5,8.4l-2.3,0.2V51.7z M220.4,11.9c1.3-0.3,2.6-0.5,4-0.5c5,0,9.9,2.3,9.9,9.8c0,7.3-4.9,10.1-10.3,10.1h-3.7V11.9z"
		/>
</g>
<g>
	<path fill-rule="evenodd" fill="#FFFFFF" d="M261.4,25.3c-3.5-2.1-6.2-4.1-6.2-7.9c0-4.3,3.3-7,7-7c7.3,0,8.3,5.6,8.9,8.8h1.6
		c-0.2-1.9-0.3-6.6-0.6-8.9c-1.7-1-4.9-2.1-8.9-2.1c-6.8,0-13.4,3.3-13.4,11.1c0,4.8,3.4,8.8,7.1,10.8l4.1,2.2
		c5,2.2,8.9,5.5,8.9,10.1c0,5-3.3,7.9-7.7,7.9c-8.8,0-11.2-7.6-11.9-12.3l-2.1,0.5c0.7,4.4,1.4,8.9,2.1,11.3c2,1.2,5.1,2.6,10.1,2.6
		c6.8,0,14.8-3.3,14.8-12c0-7.7-5.3-10.4-10.3-13.3L261.4,25.3z"/>
	<path fill-rule="evenodd" fill="#FFFFFF" d="M28.8,27.2c0.7,4.1,6.4,14.5,8.6,18.4c4.9,9.1,17.5,27.4,27,26.8l1.1,0l0,1.5L63.7,74
		c-13.3,0.5-25.2-14.3-32.2-26.2c-2.8-4.8-5.5-10.5-8-15.5c-0.6-1.3-1.4-2.1-2.2-2.7c-1.3-0.7-3-0.7-4.4-0.7c-0.8,0-3.3,0-4.5,0
		l0,10.7c0,2-0.1,6.8,0.4,8.8c0.4,1.5,1.3,1.7,2.8,1.9l2.6,0.2v1.2H0v-1.2l2.6-0.2c1.5-0.2,2.5-0.4,2.9-1.9c0.5-1.9,0.4-6.8,0.4-8.8
		V12.1c0-2,0.1-6.9-0.4-8.8C5.1,1.8,4.2,1.6,2.6,1.5L0,1.3V0l12.4,0c10.9,0,25.7-1.6,25.7,13.8c0,6.2-4.2,10.3-9.4,12.8
		C28.7,26.9,28.8,27.2,28.8,27.2 M12.4,27.2c2,0.1,4.1-0.1,6-0.1c7.6,0,12.2-4.1,12.2-11.7c0-8.3-4.7-13.3-13.1-13.3
		c-1.7,0-3.4,0.3-5.1,0.7L12.4,27.2z"/>
</g>
</svg>
